<svg xmlns="http://www.w3.org/2000/svg" xmlns:xlink="http://www.w3.org/1999/xlink" width="500" zoomAndPan="magnify" viewBox="0 0 375 374.999991" height="500" preserveAspectRatio="xMidYMid meet" version="1.0"><defs><g/><clipPath id="822f0287cd"><path d="M 61.925781 33.5 L 313.175781 33.5 L 313.175781 284.75 L 61.925781 284.75 Z M 61.925781 33.5 " clip-rule="nonzero"/></clipPath><clipPath id="19a3e7850e"><path d="M 141 33.5 L 313.175781 33.5 L 313.175781 205 L 141 205 Z M 141 33.5 " clip-rule="nonzero"/></clipPath></defs><rect x="-37.5" width="450" fill="#ffffff" y="-37.499999" height="449.999989" fill-opacity="1"/><rect x="-37.5" width="450" fill="#ededed" y="-37.499999" height="449.999989" fill-opacity="1"/><path fill="#948979" d="M 216.035156 79.164062 L 238.867188 79.164062 L 238.867188 153.367188 L 216.035156 153.367188 Z M 216.035156 79.164062 " fill-opacity="1" fill-rule="evenodd"/><path fill="#948979" d="M 219.382812 65.382812 L 185.132812 99.632812 L 201.277344 115.773438 L 227.453125 89.601562 L 253.628906 115.773438 L 269.773438 99.632812 L 235.527344 65.382812 C 231.066406 60.925781 223.839844 60.925781 219.382812 65.382812 Z M 219.382812 65.382812 " fill-opacity="1" fill-rule="evenodd"/><g clip-path="url(#822f0287cd)"><path fill="#948979" d="M 96.171875 56.332031 C 89.867188 56.332031 84.757812 61.445312 84.757812 67.75 L 84.757812 250.398438 C 84.757812 256.703125 89.867188 261.816406 96.171875 261.816406 L 278.824219 261.816406 C 285.128906 261.816406 290.238281 256.703125 290.238281 250.398438 L 290.238281 199.027344 L 313.070312 199.027344 L 313.070312 250.398438 C 313.070312 269.3125 297.738281 284.644531 278.824219 284.644531 L 96.171875 284.644531 C 77.257812 284.644531 61.925781 269.3125 61.925781 250.398438 L 61.925781 67.75 C 61.925781 48.835938 77.257812 33.5 96.171875 33.5 L 147.542969 33.5 L 147.542969 56.332031 Z M 96.171875 56.332031 " fill-opacity="1" fill-rule="evenodd"/></g><path fill="#948979" d="M 138.308594 209.71875 C 133.902344 204.292969 125.703125 204.066406 121.003906 209.238281 L 81.789062 252.371094 L 64.894531 237.011719 L 104.109375 193.878906 C 118.210938 178.367188 142.8125 179.050781 156.027344 195.320312 L 213.484375 266.03125 L 195.761719 280.429688 Z M 138.308594 209.71875 " fill-opacity="1" fill-rule="evenodd"/><path fill="#948979" d="M 245.898438 239.328125 C 241.648438 235.078125 234.832031 234.851562 230.308594 238.808594 L 200.71875 264.699219 L 185.6875 247.515625 L 215.273438 221.625 C 228.839844 209.753906 249.292969 210.433594 262.039062 223.183594 L 298.308594 259.449219 L 282.164062 275.59375 Z M 245.898438 239.328125 " fill-opacity="1" fill-rule="evenodd"/><g clip-path="url(#19a3e7850e)"><path fill="#948979" d="M 227.453125 56.332031 C 192.777344 56.332031 164.667969 84.441406 164.667969 119.117188 C 164.667969 153.796875 192.777344 181.90625 227.453125 181.90625 C 262.128906 181.90625 290.238281 153.796875 290.238281 119.117188 C 290.238281 84.441406 262.128906 56.332031 227.453125 56.332031 Z M 141.835938 119.117188 C 141.835938 71.832031 180.167969 33.5 227.453125 33.5 C 274.738281 33.5 313.070312 71.832031 313.070312 119.117188 C 313.070312 166.402344 274.738281 204.734375 227.453125 204.734375 C 180.167969 204.734375 141.835938 166.402344 141.835938 119.117188 Z M 141.835938 119.117188 " fill-opacity="1" fill-rule="evenodd"/></g><g fill="#948979" fill-opacity="1"><g transform="translate(109.744071, 332.898552)"><g><path d="M 7.8125 -23.875 L 7.8125 -9.59375 C 7.8125 -8.164062 8.160156 -7.066406 8.859375 -6.296875 C 9.566406 -5.523438 10.601562 -5.140625 11.96875 -5.140625 C 13.332031 -5.140625 14.375 -5.523438 15.09375 -6.296875 C 15.820312 -7.066406 16.1875 -8.164062 16.1875 -9.59375 L 16.1875 -23.875 L 22 -23.875 L 22 -9.625 C 22 -7.488281 21.546875 -5.679688 20.640625 -4.203125 C 19.734375 -2.734375 18.515625 -1.625 16.984375 -0.875 C 15.453125 -0.132812 13.742188 0.234375 11.859375 0.234375 C 9.984375 0.234375 8.300781 -0.128906 6.8125 -0.859375 C 5.332031 -1.597656 4.160156 -2.707031 3.296875 -4.1875 C 2.429688 -5.675781 2 -7.488281 2 -9.625 L 2 -23.875 Z M 7.8125 -23.875 "/></g></g></g><g fill="#948979" fill-opacity="1"><g transform="translate(139.83127, 332.898552)"><g><path d="M 7.921875 -16.28125 C 8.484375 -17.164062 9.265625 -17.878906 10.265625 -18.421875 C 11.265625 -18.972656 12.429688 -19.25 13.765625 -19.25 C 15.328125 -19.25 16.742188 -18.847656 18.015625 -18.046875 C 19.285156 -17.253906 20.289062 -16.117188 21.03125 -14.640625 C 21.769531 -13.171875 22.140625 -11.460938 22.140625 -9.515625 C 22.140625 -7.566406 21.769531 -5.847656 21.03125 -4.359375 C 20.289062 -2.878906 19.285156 -1.738281 18.015625 -0.9375 C 16.742188 -0.132812 15.328125 0.265625 13.765625 0.265625 C 12.453125 0.265625 11.289062 -0.00390625 10.28125 -0.546875 C 9.269531 -1.085938 8.484375 -1.789062 7.921875 -2.65625 L 7.921875 9.046875 L 2.109375 9.046875 L 2.109375 -18.96875 L 7.921875 -18.96875 Z M 16.21875 -9.515625 C 16.21875 -10.972656 15.8125 -12.113281 15 -12.9375 C 14.195312 -13.757812 13.207031 -14.171875 12.03125 -14.171875 C 10.875 -14.171875 9.894531 -13.75 9.09375 -12.90625 C 8.289062 -12.070312 7.890625 -10.929688 7.890625 -9.484375 C 7.890625 -8.035156 8.289062 -6.890625 9.09375 -6.046875 C 9.894531 -5.210938 10.875 -4.796875 12.03125 -4.796875 C 13.1875 -4.796875 14.171875 -5.21875 14.984375 -6.0625 C 15.804688 -6.914062 16.21875 -8.066406 16.21875 -9.515625 Z M 16.21875 -9.515625 "/></g></g></g><g fill="#948979" fill-opacity="1"><g transform="translate(169.034561, 332.898552)"><g><path d="M 7.921875 -25.15625 L 7.921875 0 L 2.109375 0 L 2.109375 -25.15625 Z M 7.921875 -25.15625 "/></g></g></g><g fill="#948979" fill-opacity="1"><g transform="translate(185.183347, 332.898552)"><g><path d="M 10.75 0.265625 C 8.882812 0.265625 7.207031 -0.128906 5.71875 -0.921875 C 4.238281 -1.710938 3.070312 -2.84375 2.21875 -4.3125 C 1.375 -5.789062 0.953125 -7.515625 0.953125 -9.484375 C 0.953125 -11.429688 1.378906 -13.144531 2.234375 -14.625 C 3.097656 -16.113281 4.28125 -17.253906 5.78125 -18.046875 C 7.28125 -18.847656 8.957031 -19.25 10.8125 -19.25 C 12.664062 -19.25 14.34375 -18.847656 15.84375 -18.046875 C 17.34375 -17.253906 18.519531 -16.113281 19.375 -14.625 C 20.238281 -13.144531 20.671875 -11.429688 20.671875 -9.484375 C 20.671875 -7.535156 20.234375 -5.816406 19.359375 -4.328125 C 18.484375 -2.847656 17.289062 -1.710938 15.78125 -0.921875 C 14.28125 -0.128906 12.601562 0.265625 10.75 0.265625 Z M 10.75 -4.765625 C 11.851562 -4.765625 12.796875 -5.171875 13.578125 -5.984375 C 14.359375 -6.796875 14.75 -7.960938 14.75 -9.484375 C 14.75 -11.003906 14.367188 -12.171875 13.609375 -12.984375 C 12.859375 -13.804688 11.925781 -14.21875 10.8125 -14.21875 C 9.675781 -14.21875 8.734375 -13.8125 7.984375 -13 C 7.242188 -12.195312 6.875 -11.023438 6.875 -9.484375 C 6.875 -7.960938 7.238281 -6.796875 7.96875 -5.984375 C 8.707031 -5.171875 9.632812 -4.765625 10.75 -4.765625 Z M 10.75 -4.765625 "/></g></g></g><g fill="#948979" fill-opacity="1"><g transform="translate(212.958808, 332.898552)"><g><path d="M 0.953125 -9.515625 C 0.953125 -11.460938 1.316406 -13.171875 2.046875 -14.640625 C 2.785156 -16.117188 3.789062 -17.253906 5.0625 -18.046875 C 6.332031 -18.847656 7.75 -19.25 9.3125 -19.25 C 10.65625 -19.25 11.828125 -18.972656 12.828125 -18.421875 C 13.835938 -17.878906 14.613281 -17.164062 15.15625 -16.28125 L 15.15625 -18.96875 L 20.984375 -18.96875 L 20.984375 0 L 15.15625 0 L 15.15625 -2.6875 C 14.59375 -1.800781 13.804688 -1.085938 12.796875 -0.546875 C 11.785156 -0.00390625 10.613281 0.265625 9.28125 0.265625 C 7.738281 0.265625 6.332031 -0.132812 5.0625 -0.9375 C 3.789062 -1.738281 2.785156 -2.878906 2.046875 -4.359375 C 1.316406 -5.847656 0.953125 -7.566406 0.953125 -9.515625 Z M 15.15625 -9.484375 C 15.15625 -10.929688 14.753906 -12.070312 13.953125 -12.90625 C 13.148438 -13.75 12.171875 -14.171875 11.015625 -14.171875 C 9.859375 -14.171875 8.878906 -13.757812 8.078125 -12.9375 C 7.273438 -12.113281 6.875 -10.972656 6.875 -9.515625 C 6.875 -8.066406 7.273438 -6.914062 8.078125 -6.0625 C 8.878906 -5.21875 9.859375 -4.796875 11.015625 -4.796875 C 12.171875 -4.796875 13.148438 -5.210938 13.953125 -6.046875 C 14.753906 -6.890625 15.15625 -8.035156 15.15625 -9.484375 Z M 15.15625 -9.484375 "/></g></g></g><g fill="#948979" fill-opacity="1"><g transform="translate(242.162103, 332.898552)"><g><path d="M 0.953125 -9.515625 C 0.953125 -11.460938 1.316406 -13.171875 2.046875 -14.640625 C 2.785156 -16.117188 3.789062 -17.253906 5.0625 -18.046875 C 6.332031 -18.847656 7.75 -19.25 9.3125 -19.25 C 10.5625 -19.25 11.703125 -18.988281 12.734375 -18.46875 C 13.765625 -17.945312 14.570312 -17.242188 15.15625 -16.359375 L 15.15625 -25.15625 L 20.984375 -25.15625 L 20.984375 0 L 15.15625 0 L 15.15625 -2.71875 C 14.613281 -1.8125 13.835938 -1.085938 12.828125 -0.546875 C 11.828125 -0.00390625 10.65625 0.265625 9.3125 0.265625 C 7.75 0.265625 6.332031 -0.132812 5.0625 -0.9375 C 3.789062 -1.738281 2.785156 -2.878906 2.046875 -4.359375 C 1.316406 -5.847656 0.953125 -7.566406 0.953125 -9.515625 Z M 15.15625 -9.484375 C 15.15625 -10.929688 14.753906 -12.070312 13.953125 -12.90625 C 13.148438 -13.75 12.171875 -14.171875 11.015625 -14.171875 C 9.859375 -14.171875 8.878906 -13.757812 8.078125 -12.9375 C 7.273438 -12.113281 6.875 -10.972656 6.875 -9.515625 C 6.875 -8.066406 7.273438 -6.914062 8.078125 -6.0625 C 8.878906 -5.21875 9.859375 -4.796875 11.015625 -4.796875 C 12.171875 -4.796875 13.148438 -5.210938 13.953125 -6.046875 C 14.753906 -6.890625 15.15625 -8.035156 15.15625 -9.484375 Z M 15.15625 -9.484375 "/></g></g></g></svg>